<svg xmlns="http://www.w3.org/2000/svg" xmlns:xlink="http://www.w3.org/1999/xlink" width="256" height="256" viewBox="0 0 256 256">
  <defs>
    <clipPath id="clip-_1.1-home_13">
      <rect width="256" height="256"/>
    </clipPath>
  </defs>
  <g id="_1.1-home_13" data-name="1.1-home – 13" clip-path="url(#clip-_1.1-home_13)">
    <rect width="256" height="256"/>
    <g id="Login" transform="translate(46.5 29)">
      <g id="_1.3---Login---EC" data-name="1.3---Login---EC" transform="translate(0.5)">
        <g id="logo-4all" transform="translate(0)">
          <path id="Fill-8" d="M149.033,55.528,136.746,43.8A87.206,87.206,0,0,1,76.367,67.671,87.205,87.205,0,0,1,15.989,43.8L3.7,55.528A104.945,104.945,0,0,0,76.367,84.262a104.945,104.945,0,0,0,72.665-28.734" transform="translate(9.679 114.504)" fill="#fff" fill-rule="evenodd"/>
          <path id="Fill-5" d="M37.948,18.412a47.968,47.968,0,0,1,7.113-.536,47.371,47.371,0,0,1,7.014.536V66.438a22.758,22.758,0,0,0,.352,4.477,6.189,6.189,0,0,0,1.1,2.645,3.845,3.845,0,0,0,1.953,1.295,10.726,10.726,0,0,0,3.008.359c.534,0,1.117-.028,1.754-.089a18.153,18.153,0,0,0,1.852-.27,24.855,24.855,0,0,1,1.1,7.164v1.3a4.873,4.873,0,0,1-.2,1.3,20.669,20.669,0,0,1-3.858.626q-2.257.178-4.157.179-7.718,0-12.375-3.806t-4.658-12.4Z" transform="translate(99.214 46.736)" fill="#fff" fill-rule="evenodd"/>
          <path id="Fill-3" d="M30.544,18.412a47.964,47.964,0,0,1,7.113-.536,47.37,47.37,0,0,1,7.013.536V66.438a22.784,22.784,0,0,0,.352,4.477,6.193,6.193,0,0,0,1.1,2.645,3.842,3.842,0,0,0,1.952,1.295,10.726,10.726,0,0,0,3.008.359c.534,0,1.117-.028,1.755-.089a18.16,18.16,0,0,0,1.852-.27,24.842,24.842,0,0,1,1.1,7.164v1.3a4.858,4.858,0,0,1-.2,1.3,20.664,20.664,0,0,1-3.858.626q-2.256.178-4.157.179-7.718,0-12.375-3.806t-4.658-12.4Z" transform="translate(79.855 46.736)" fill="#fff" fill-rule="evenodd"/>
          <path id="Fill-13" d="M46.2,49.852c-.816-.132-1.7-.243-2.649-.342a25.076,25.076,0,0,0-2.546-.144,15.623,15.623,0,0,0-7.9,1.7,5.894,5.894,0,0,0-2.9,5.5,5.957,5.957,0,0,0,1.121,3.889,6.618,6.618,0,0,0,2.7,2,11.343,11.343,0,0,0,3.361.775c1.189.1,2.224.15,3.106.15a19.755,19.755,0,0,0,3.057-.243c1.019-.161,1.9-.308,2.649-.44Zm0-10.016a7.751,7.751,0,0,0-.816-3.8,5.94,5.94,0,0,0-2.242-2.284,9.561,9.561,0,0,0-3.512-1.118,21.135,21.135,0,0,0-4.635-.291c-14.39,1.078-14.566-6-14.566-8.072a57.519,57.519,0,0,1,17.315-2.824q10.6,0,16.551,4.862t5.961,15.563V71.054A87.512,87.512,0,0,1,51.6,73.1a61.862,61.862,0,0,1-11.51.974,48.238,48.238,0,0,1-9.525-.876,20.927,20.927,0,0,1-7.437-2.921,13.928,13.928,0,0,1-4.788-5.25,16.873,16.873,0,0,1-1.679-7.879,13.912,13.912,0,0,1,2.088-7.829,15.8,15.8,0,0,1,5.4-5.056,24.627,24.627,0,0,1,7.385-2.724,41.006,41.006,0,0,1,8.15-.827c1.97,0,4.139.1,6.519.294Z" transform="translate(43.557 56.084)" fill="#fff" fill-rule="evenodd"/>
          <path id="Fill-1" d="M45.3,59.4c0-4.275.006-7.406.008-7.411S45.263,41.872,31.1,41.872L31.074,59.4H15.3C15.618,57.949,35.5,19.251,35.5,19.251,21.851,14.555,18.078,23.4,18.078,23.4S5.747,47.268,1.594,55.2C-3.479,64.905,4.5,72.99,12.275,72.99c0,0,15.048-.015,18.8-.012V84.668a47.367,47.367,0,0,0,7.059.544,47.963,47.963,0,0,0,7.159-.544s0-9.988,0-11.679h.082s10.592-.045,10.592-13.573Z" transform="translate(0 46.736)" fill="#fff" fill-rule="evenodd"/>
          <path id="Fill-10" d="M76.368,0A104.946,104.946,0,0,0,3.7,28.734L15.989,40.465A87.206,87.206,0,0,1,76.368,16.591a87.207,87.207,0,0,1,60.379,23.874l12.286-11.731A104.946,104.946,0,0,0,76.368,0" transform="translate(9.679)" fill="#fff" fill-rule="evenodd"/>
        </g>
      </g>
    </g>
  </g>
</svg>
